# xmcd CD database file
#
# Track frame offsets:
#	150
#	14282
#	26283
#	39497
#	53869
#	67164
#	78811
#	93614
#	107743
#	121656
#	135348
#	145033
#	159212
#	174233
#	185367
#
# Disc length: 2650 seconds
#
# Revision: 2
# Processed by: cddbd v1.5.2PL0 Copyright (c) Steve Scherf et al.
# Submitted via: CDex 1.51
#
DISCID=b10a580f
DTITLE=Songs For A Lazy Sunday - Songs For A Lazy Sunday [CD6]
DYEAR=2004
DGENRE=Jazz+Funk
TTITLE0=George Shearing - East Of The Sun
TTITLE1=Frank Sinatra - Paradise
TTITLE2=Dinah Washington - When A Woman Loves A Man
TTITLE3=Thelonius Monk - 'Round Midnight
TTITLE4=George Shearing - Little White Lies
TTITLE5=Erroll Garner Trio - I've Got You Under My Skin
TTITLE6=Art Tatum - Sophisticated Lady
TTITLE7=Oscar Petersen Trio - At Sundown
TTITLE8=Benny Carter - Cocktails For Two
TTITLE9=Jimmy Dorsey and His Orchestra - Contrasts
TTITLE10=Dizzy Gillespie and His Orchestra - Night In Tunisia
TTITLE11=Duke Ellington and His Orchestra - Mood Indigo
TTITLE12=Lionel Hampton and His Orchestra - Midnight Sun
TTITLE13=Don Byas - Time On My Hands
TTITLE14=Claude Thornhill and His Orchestra - Snowfall
EXTD=YEAR: 2004
EXTT0=
EXTT1=
EXTT2=
EXTT3=
EXTT4=
EXTT5=
EXTT6=
EXTT7=
EXTT8=
EXTT9=
EXTT10=
EXTT11=
EXTT12=
EXTT13=
EXTT14=
PLAYORDER=
